<svg id="Group_244" data-name="Group 244" xmlns="http://www.w3.org/2000/svg" xmlns:xlink="http://www.w3.org/1999/xlink" width="100%" height="100%" viewBox="0 0 961 1080">
  <defs>
    <linearGradient id="linear-gradient" y1="1" x2="1" gradientUnits="objectBoundingBox">
      <stop offset="0" stop-color="#5c6ccd"/>
      <stop offset="1" stop-color="#5753b5"/>
    </linearGradient>
    <linearGradient id="linear-gradient-2" x1="0.769" y1="0.221" x2="0.14" y2="0.932" gradientUnits="objectBoundingBox">
      <stop offset="0" stop-color="#23271f"/>
      <stop offset="1" stop-color="#12b790"/>
    </linearGradient>
    <clipPath id="clip-path">
      <rect id="Rectangle_179" data-name="Rectangle 179" width="961" height="1080" fill="url(#linear-gradient)"/>
    </clipPath>
    <linearGradient id="linear-gradient-3" x1="0.5" x2="0.5" y2="1" gradientUnits="objectBoundingBox">
      <stop offset="0" stop-color="#a7a7ff"/>
      <stop offset="1" stop-color="#fff" stop-opacity="0"/>
    </linearGradient>
    <linearGradient id="linear-gradient-5" x1="0.5" x2="0.5" y2="1" gradientUnits="objectBoundingBox">
      <stop offset="0" stop-color="#54d8ff"/>
      <stop offset="1" stop-color="#fff" stop-opacity="0"/>
    </linearGradient>
  </defs>
  <rect id="Rectangle_176" data-name="Rectangle 176" width="961" height="1080" fill="url(#linear-gradient-2)"/>
  <g id="Group_4" data-name="Group 4" clip-path="url(#clip-path)">
    <g id="Products_Sold_Graph" data-name="Products Sold Graph" transform="translate(-658.245 319.65)" opacity="0.201">
      <path id="Filled.Graph" d="M330,822.827V577.385s370.4,160.989,666.347,171.1c320.014-9.8,375.427-78.7,624.695-171.1,213.01-77.019,425.437-98.157,629.329-92.715s380.614,88.642,621.458,97.168c424.876-34.351,641.649-208.025,670.355-280.561V914.109L330,914.381Z" transform="translate(-330 -298.414)" opacity="0.7" fill="url(#linear-gradient-3)"/>
      <path id="Line.Graph" d="M313,524.853S681.006,689.679,971.978,693.228s402.735-85.057,625.6-168.156,434.735-97.281,629.793-94.488,384.681,89.875,624.348,94.5,627.4-150.528,670.515-279.841" transform="translate(-310.052 -245.24)" fill="none" stroke="#a3a0fb" stroke-width="2"/>
      <g id="Mar.Ellipse" transform="translate(1273.407 267.186)" fill="#fff" stroke="#a4a1fb" stroke-width="2">
        <circle cx="11.966" cy="11.966" r="11.966" stroke="none"/>
        <circle cx="11.966" cy="11.966" r="10.966" fill="none"/>
      </g>
      <g id="Feb.Ellipse" transform="translate(847.798 419.878)" fill="#fff" stroke="#a4a1fb" stroke-width="2">
        <circle cx="11.966" cy="11.966" r="11.966" stroke="none"/>
        <circle cx="11.966" cy="11.966" r="10.966" fill="none"/>
      </g>
    </g>
    <g id="Products_Sold_Graph-2" data-name="Products Sold Graph" transform="translate(-810.724 581.775)" opacity="0.201">
      <path id="Filled.Graph-2" data-name="Filled.Graph" d="M330,822.827V577.385s370.4,160.989,666.347,171.1c320.014-9.8,375.427-78.7,624.695-171.1,213.01-77.019,425.437-98.157,629.329-92.715s380.614,88.642,621.458,97.168c424.876-34.351,641.649-208.025,670.355-280.561V914.109L330,914.381Z" transform="translate(-330 -298.414)" opacity="0.7" fill="url(#linear-gradient-3)"/>
      <path id="Line.Graph-2" data-name="Line.Graph" d="M313,524.853S681.006,689.679,971.978,693.228s402.735-85.057,625.6-168.156,434.735-97.281,629.793-94.488,384.681,89.875,624.348,94.5,627.4-150.528,670.515-279.841" transform="translate(-310.052 -245.24)" fill="none" stroke="#a3a0fb" stroke-width="2"/>
      <g id="Mar.Ellipse-2" data-name="Mar.Ellipse" transform="translate(1273.407 267.186)" fill="#fff" stroke="#a4a1fb" stroke-width="2">
        <circle cx="11.966" cy="11.966" r="11.966" stroke="none"/>
        <circle cx="11.966" cy="11.966" r="10.966" fill="none"/>
      </g>
    </g>
    <g id="Total_Views_Graph" data-name="Total Views Graph" transform="translate(-845.599 344.74)" opacity="0.201">
      <path id="Filled.Graph-3" data-name="Filled.Graph" d="M330,729.221v-374.8S691.516,727.05,988.485,741.074c331.345-3.158,334.06-193.446,625.226-297.617,243.755-81.794,429.754,141.325,633.645,146.767s344.607-152.916,622.777-163.918c360.4,16.568,649.6,228.141,672.04,239.517V820.5L330,820.775Z" transform="translate(-328.009 -354.422)" opacity="0.7" fill="url(#linear-gradient-5)"/>
      <path id="Line.Graph-3" data-name="Line.Graph" d="M312.953,279.164s372.768,379.5,664.1,383.044,390.958-223.6,624.876-300.177S2038.772,508.1,2234.072,510.9s382.286-167.271,622.25-162.649,514.319,133.267,665.994,234.746" transform="translate(-312.953 -275.989)" fill="none" stroke="#54d8ff" stroke-width="2"/>
      <g id="May.Ellipse" transform="translate(2521.674 57.949)" fill="#fff" stroke="#55d8fe" stroke-width="2">
        <circle cx="11.966" cy="11.966" r="11.966" stroke="none"/>
        <circle cx="11.966" cy="11.966" r="10.966" fill="none"/>
      </g>
      <g id="Mar.Ellipse-3" data-name="Mar.Ellipse" transform="translate(1370.082 57.019)" fill="#fff" stroke="#55d8fe" stroke-width="2">
        <circle cx="11.966" cy="11.966" r="11.966" stroke="none"/>
        <circle cx="11.966" cy="11.966" r="10.966" fill="none"/>
      </g>
    </g>
    <g id="Total_Views_Graph-2" data-name="Total Views Graph" transform="translate(-1209.057 468.869)" opacity="0.201">
      <path id="Filled.Graph-4" data-name="Filled.Graph" d="M330,729.221v-374.8S691.516,727.05,988.485,741.074c331.345-3.158,334.06-193.446,625.226-297.617,243.755-81.794,429.754,141.325,633.645,146.767s344.607-152.916,622.777-163.918c360.4,16.568,649.6,228.141,672.04,239.517V820.5L330,820.775Z" transform="translate(-329.21 -354.422)" opacity="0.7" fill="url(#linear-gradient-5)"/>
      <path id="Line.Graph-4" data-name="Line.Graph" d="M312.953,279.164s372.768,379.5,664.1,383.044,390.958-223.6,624.876-300.177S2038.772,508.1,2234.072,510.9s382.286-167.271,622.25-162.649,514.319,133.267,665.994,234.746" transform="translate(-312.953 -275.989)" fill="none" stroke="#54d8ff" stroke-width="2"/>
      <g id="Apr.Ellipse" transform="translate(2025.467 205.118)" fill="#fff" stroke="#55d8fe" stroke-width="2">
        <circle cx="11.966" cy="11.966" r="11.966" stroke="none"/>
        <circle cx="11.966" cy="11.966" r="10.966" fill="none"/>
      </g>
      <g id="Mar.Ellipse-4" data-name="Mar.Ellipse" transform="translate(1271.226 71.755)" fill="#fff" stroke="#55d8fe" stroke-width="2">
        <circle cx="11.966" cy="11.966" r="11.966" stroke="none"/>
        <circle cx="11.966" cy="11.966" r="10.966" fill="none"/>
      </g>
    </g>
  </g>
</svg>
