<svg xmlns="http://www.w3.org/2000/svg" width="48" height="48" viewBox="0 0 48 48">
  <g id="Group_101" data-name="Group 101" transform="translate(-313 -140)">
    <rect id="Rectangle_212" data-name="Rectangle 212" width="48" height="48" rx="4" transform="translate(313 140)" fill="#12b790"/>
    <path id="Icon_awesome-check" data-name="Icon awesome-check" d="M8.151,22.123l-7.8-7.8a1.2,1.2,0,0,1,0-1.7l1.7-1.7a1.2,1.2,0,0,1,1.7,0L9,16.183,20.254,4.929a1.2,1.2,0,0,1,1.7,0l1.7,1.7a1.2,1.2,0,0,1,0,1.7l-13.8,13.8A1.2,1.2,0,0,1,8.151,22.123Z" transform="translate(325 150.423)" fill="#fff"/>
  </g>
</svg>
