<svg xmlns="http://www.w3.org/2000/svg" width="36" height="36" viewBox="0 0 36 36">
  <path id="Icon_awesome-question-circle" data-name="Icon awesome-question-circle" d="M36.562,18.563a18,18,0,1,1-18-18A18,18,0,0,1,36.562,18.563ZM19.046,6.514a9.4,9.4,0,0,0-8.459,4.628.872.872,0,0,0,.2,1.18l2.518,1.91a.871.871,0,0,0,1.21-.154c1.3-1.645,2.186-2.6,4.159-2.6,1.483,0,3.317.954,3.317,2.392,0,1.087-.9,1.645-2.361,2.466-1.707.957-3.967,2.148-3.967,5.128v.29a.871.871,0,0,0,.871.871h4.065a.871.871,0,0,0,.871-.871v-.1c0-2.066,6.038-2.152,6.038-7.742C27.5,9.708,23.137,6.514,19.046,6.514Zm-.483,18A3.339,3.339,0,1,0,21.9,27.853,3.342,3.342,0,0,0,18.563,24.514Z" transform="translate(-0.563 -0.563)" fill="#7630ea"/>
</svg>
