<svg xmlns="http://www.w3.org/2000/svg" width="38.499" height="49.999" viewBox="0 0 38.499 49.999">
  <path id="Icon_simple-readthedocs" data-name="Icon simple-readthedocs" d="M4.139,50l1.383-.3c.431-.092.858-.177,1.289-.262.662-.129,1.327-.256,1.989-.379.5-.1,1-.177,1.5-.269l.115-.031c.521-.092,1.037-.187,1.556-.25l2.529-.373V0h-.087C13.1.007,11.8.032,10.49.073,9.055.111,7.586.2,6.149.292c-.623.044-1.25.1-1.873.146H4.182V49.985ZM16.954.032V47.824c1.794-.208,3.583-.379,5.379-.512A127.754,127.754,0,0,1,35.609,47q3.525.106,7.029.4V3.132Q39.5,2.416,36.33,1.867C32.23,1.155,28.091.657,23.941.344Q20.46.091,16.958.034h0ZM39.376,30.857l-.1-.008-1.169-.127c-2.914-.3-5.843-.5-8.764-.606s-5.864-.062-8.8.033h-.092a.808.808,0,0,1-.281-.033,1.236,1.236,0,0,1-.556-.31,1.211,1.211,0,0,1-.325-1.031,1.315,1.315,0,0,1,.112-.346,1.025,1.025,0,0,1,.217-.279,1.161,1.161,0,0,1,.3-.217A1.853,1.853,0,0,1,20.3,27.8h.187c.406,0,.815-.033,1.187-.033,2.906-.06,5.777-.06,8.685.062,3,.125,5.966.344,8.933.687l.315.031c.092.033.185.033.281.062a1.377,1.377,0,0,1,.531.377,1.352,1.352,0,0,1,.219.342.864.864,0,0,1,.092.375,1.175,1.175,0,0,1-.342.937,1.781,1.781,0,0,1-.281.219,1.212,1.212,0,0,1-.346.125.316.316,0,0,1-.185.033h-.1l-.1-.167Zm.073-5.648a.967.967,0,0,1-.187-.012L38.1,25.049c-2.906-.373-5.841-.625-8.745-.748-2.906-.156-5.843-.187-8.779-.125l-.1-.033c-.094-.031-.187-.031-.281-.06a1.186,1.186,0,0,1-.529-.346,1.587,1.587,0,0,1-.187-.308,1.232,1.232,0,0,1,.029-1.094,1.181,1.181,0,0,1,.219-.312.682.682,0,0,1,.312-.217.888.888,0,0,1,.375-.125l.187-.033,1.219-.031c2.908-.033,5.779.031,8.651.187,3,.156,5.968.437,8.935.812l.31.033.19.029a1.078,1.078,0,0,1,.562.346,1.17,1.17,0,0,1,.344.935.638.638,0,0,1-.094.344,2.945,2.945,0,0,1-.187.312,1.115,1.115,0,0,1-.283.25,1.2,1.2,0,0,1-.342.127l-.19.029h-.087l-.19.187Zm0-5.648a.967.967,0,0,1-.187-.012L38.1,19.383c-2.906-.4-5.81-.7-8.745-.892-2.906-.192-5.843-.281-8.779-.269h-.1l-.187-.033a1.525,1.525,0,0,1-.342-.142,1.31,1.31,0,0,1-.594-.912,1.421,1.421,0,0,1,.033-.375,1.274,1.274,0,0,1,.123-.354,1.339,1.339,0,0,1,.252-.3,1.232,1.232,0,0,1,.594-.312,1.164,1.164,0,0,1,.281-.031h1.185c3,.019,6,.133,8.966.358,2.906.219,5.779.542,8.651.952l.312.044a.691.691,0,0,1,.187.04,1.226,1.226,0,0,1,.344.167.751.751,0,0,1,.281.256,3.706,3.706,0,0,1,.187.329,1.225,1.225,0,0,1-.06,1,1.111,1.111,0,0,1-.219.3,1.134,1.134,0,0,1-.562.312.476.476,0,0,1-.19.029l-.092.01h-.19Zm0-5.65a.832.832,0,0,1-.187-.015L38.1,13.71c-2.906-.469-5.81-.815-8.745-1.033-2.906-.248-5.843-.373-8.779-.435h-.1l-.219-.029a1.321,1.321,0,0,1-.344-.154,1.3,1.3,0,0,1-.292-.252,2.55,2.55,0,0,1-.2-.31,1.877,1.877,0,0,1-.092-.377,1.3,1.3,0,0,1,.377-1.029,1.229,1.229,0,0,1,.581-.312.865.865,0,0,1,.281-.031c.394,0,.792.01,1.187.017,2.994.071,5.981.235,8.966.512,2.889.248,5.77.625,8.635,1.092l.281.033a.413.413,0,0,1,.187.029,1.4,1.4,0,0,1,.344.158,1.086,1.086,0,0,1,.26.248,1.317,1.317,0,0,1,.219.969,1.547,1.547,0,0,1-.127.346,1.074,1.074,0,0,1-.25.281,1.251,1.251,0,0,1-.565.31H39.44l.008.171ZM6.8,12.852a1.329,1.329,0,0,1-.565-.131,1.263,1.263,0,0,1-.685-1.052,1.283,1.283,0,0,1,.062-.344.951.951,0,0,1,.187-.4,1.382,1.382,0,0,1,.342-.337,1.515,1.515,0,0,1,.5-.192l1-.092c1.373-.121,2.719-.219,4.06-.3h.125a1.13,1.13,0,0,1,.565.148,1.231,1.231,0,0,1,.654,1.081,1.3,1.3,0,0,1-.06.335.986.986,0,0,1-.19.394,1.15,1.15,0,0,1-.344.344,1.4,1.4,0,0,1-.5.187c-.217.031-.435.031-.654.062-.283.031-.6.031-.908.065l-2.433.183-.594.065a1.685,1.685,0,0,1-.408.031L6.8,12.852ZM39.417,8.267l-.19-.021-1.154-.208C35.168,7.55,32.23,7.152,29.3,6.863c-2.906-.287-5.841-.469-8.779-.565h-.094l-.187-.037a1.329,1.329,0,0,1-.344-.148,1.542,1.542,0,0,1-.281-.252,1.175,1.175,0,0,1-.25-1.054,2.124,2.124,0,0,1,.154-.375,1.239,1.239,0,0,1,.252-.312,1.307,1.307,0,0,1,.594-.312.859.859,0,0,1,.281-.031l1.217.031c2.906.127,5.779.312,8.654.627,3,.308,5.966.748,8.933,1.25l.312.029a.313.313,0,0,1,.187.033,1.207,1.207,0,0,1,.344.154,1.259,1.259,0,0,1,.5.877.755.755,0,0,1-.031.377.653.653,0,0,1-.123.342,2.146,2.146,0,0,1-.219.281,1.055,1.055,0,0,1-.6.281l-.179.029h-.1l-.125.179ZM6.77,6.665a1.226,1.226,0,0,1-.521-.117,1.2,1.2,0,0,1-.621-.662,1.128,1.128,0,0,1-.081-.325,1.23,1.23,0,0,1,.531-1.137,1.248,1.248,0,0,1,.542-.206c.329-.029.654-.029.985-.06,1.354-.094,2.71-.156,4.06-.219h.1a1.54,1.54,0,0,1,.533.156,1.3,1.3,0,0,1,.625,1.092,1.191,1.191,0,0,1-.062.346,1.8,1.8,0,0,1-.217.406.959.959,0,0,1-.379.312,1.053,1.053,0,0,1-.531.156,5.165,5.165,0,0,1-.687.029l-.935.065c-.844.06-1.656.094-2.471.154l-.625.033a1.9,1.9,0,0,1-.4.031Z" transform="translate(-4.139 0.001)" fill="#7630ea"/>
</svg>
