<svg xmlns="http://www.w3.org/2000/svg" width="48" height="48" viewBox="0 0 48 48">
  <g id="Group_101" data-name="Group 101" transform="translate(-313 -140)">
    <rect id="Rectangle_212" data-name="Rectangle 212" width="48" height="48" rx="4" transform="translate(313 140)" fill="#7630ea"/>
    <path id="Icon_awesome-project-diagram" data-name="Icon awesome-project-diagram" d="M14.128,11.773H9.418A1.177,1.177,0,0,0,8.241,12.95v4.709a1.177,1.177,0,0,0,1.177,1.177h4.709A1.177,1.177,0,0,0,15.3,17.659V12.95A1.177,1.177,0,0,0,14.128,11.773ZM7.064,1.177A1.177,1.177,0,0,0,5.886,0H1.177A1.177,1.177,0,0,0,0,1.177V5.886A1.177,1.177,0,0,0,1.177,7.064H4.7L7.39,11.774A2.347,2.347,0,0,1,9.418,10.6h.01L7.064,6.457V4.709H15.3V2.355H7.064ZM22.369,0H17.659a1.177,1.177,0,0,0-1.177,1.177V5.886a1.177,1.177,0,0,0,1.177,1.177h4.709a1.177,1.177,0,0,0,1.177-1.177V1.177A1.177,1.177,0,0,0,22.369,0Z" transform="translate(325.001 155)" fill="#fff"/>
  </g>
</svg>
